<?xml version="1.0" encoding="utf-8"?>
<!-- Generator: Adobe Illustrator 21.0.0, SVG Export Plug-In . SVG Version: 6.00 Build 0)  -->
<svg version="1.1" id="Layer_1" xmlns="http://www.w3.org/2000/svg" xmlns:xlink="http://www.w3.org/1999/xlink" x="0px" y="0px"
	 viewBox="0 0 32 32" style="enable-background:new 0 0 32 32;" xml:space="preserve">
<style type="text/css">
	.st0{fill-rule:evenodd;clip-rule:evenodd;}
</style>
<g>
	<path style="fill:#B8C7CE;" class="st0" d="M3.3,9.5l10.9-6.6c0.3,0.4,0.8,0.6,1.3,0.6c1,0,1.7-0.8,1.7-1.7c0-1-0.8-1.7-1.7-1.7c-1,0-1.7,0.8-1.7,1.7
		c0,0,0,0.1,0,0.1L2.2,8.7v8.1h1.2V9.5z"/>
	<path style="fill:#B8C7CE;" class="st0" d="M15.2,30.7L4.4,24.2c0-0.1,0.1-0.3,0.1-0.4c0-1-0.8-1.7-1.7-1.7c-1,0-1.7,0.8-1.7,1.7c0,1,0.8,1.7,1.7,1.7
		c0.4,0,0.8-0.2,1.1-0.4l0,0.1l11.5,6.9l0,0l0.1,0.1l8.4-5.1l-0.6-1L15.2,30.7z"/>
	<path style="fill:#B8C7CE;" class="st0" d="M28.9,22.2V8.7h0l0-0.1l-8.7-4.6l-0.6,1l8.1,4.4v12.7c-0.7,0.2-1.2,0.9-1.2,1.6c0,1,0.8,1.7,1.7,1.7
		c1,0,1.7-0.8,1.7-1.7C30.1,23.1,29.6,22.4,28.9,22.2z"/>
	<polygon style="fill:#B8C7CE;" class="st0" points="21.2,19.3 16.1,16.6 16.1,11 17.8,11 15.5,7 13.2,11 14.9,11 14.9,16.4 9.9,19.3 9.1,18 6.8,22.1 
		11.5,22.1 10.4,20.3 15.4,17.5 20.6,20.3 19.6,22.1 24.2,22.1 21.9,18 	"/>
</g>
</svg>
