<?xml version="1.0" encoding="utf-8"?>
<!-- Generator: Adobe Illustrator 21.0.0, SVG Export Plug-In . SVG Version: 6.00 Build 0)  -->
<svg version="1.1" id="Layer_1" xmlns="http://www.w3.org/2000/svg" xmlns:xlink="http://www.w3.org/1999/xlink" x="0px" y="0px"
	 viewBox="0 0 32 32" style="enable-background:new 0 0 32 32;" xml:space="preserve">
<path style="fill:#c3c3c3;" d="M31.6,25.3L18.5,2.5C17.9,1.6,17,1,16,1c-1,0-1.9,0.6-2.5,1.5L0.4,25.3c-0.5,0.9-0.6,2.1,0,3s1.5,1.5,2.5,1.5h26.3
	c1,0,2-0.6,2.5-1.5C32.1,27.4,32.1,26.2,31.6,25.3z M29.8,27.2c-0.1,0.3-0.7,1-1,1H3.2c-0.3,0-0.9-0.7-1-1C2,27,2,26.7,2.2,26.4
	L15.3,3.6c0.1-0.2,0.4-0.4,0.7-0.4c0.3,0,0.5,0.2,0.7,0.4l13.1,22.8C30,26.7,30,27,29.8,27.2z"/>
<path style="fill:#c3c3c3;" d="M16,10c-0.8,0-1.4,0.4-1.4,1.2c0,2.4,0.3,5.9,0.3,8.3c0,0.6,0.5,0.9,1.1,0.9c0.5,0,1.1-0.3,1.1-0.9c0-2.4,0.3-5.9,0.3-8.3
	C17.4,10.4,16.8,10,16,10z"/>
<path style="fill:#c3c3c3;" d="M16,21.8c-0.9,0-1.5,0.7-1.5,1.6c0,0.8,0.6,1.6,1.5,1.6c0.8,0,1.5-0.7,1.5-1.6C17.5,22.5,16.8,21.8,16,21.8z"/>
</svg>
