<?xml version="1.0" encoding="utf-8"?>
<!-- Generator: Adobe Illustrator 21.0.0, SVG Export Plug-In . SVG Version: 6.00 Build 0)  -->
<svg version="1.1" id="Layer_1" xmlns="http://www.w3.org/2000/svg" xmlns:xlink="http://www.w3.org/1999/xlink" x="0px" y="0px"
	 viewBox="0 0 32 32" style="enable-background:new 0 0 32 32;" xml:space="preserve">
<path style="fill:#c3c3c3;" d="M31.1,8.3l-6.2-8C24.8,0.1,24.6,0,24.3,0H8C7.8,0,7.5,0.1,7.4,0.3l-6.2,8C1.1,8.4,1,8.6,1,8.8v22.4C1,31.6,1.4,32,1.8,32
	h28.7c0.4,0,0.8-0.4,0.8-0.8V8.8C31.3,8.6,31.3,8.4,31.1,8.3z M28.9,8.1H17V1.6h6.9L28.9,8.1z M8.4,1.6h6.9v6.5h-12L8.4,1.6z
	 M2.6,30.4V9.7h27.1v20.6H2.6z"/>
<path style="fill:#c3c3c3;" d="M24.9,15.6H8.3c-0.4,0-0.8,0.4-0.8,0.8c0,0.5,0.4,0.8,0.8,0.8h16.6c0.4,0,0.8-0.4,0.8-0.8C25.7,15.9,25.3,15.6,24.9,15.6z"
	/>
<path style="fill:#c3c3c3;" d="M21.7,19.4H11.4c-0.4,0-0.8,0.4-0.8,0.8c0,0.5,0.4,0.8,0.8,0.8h10.3c0.4,0,0.8-0.4,0.8-0.8C22.5,19.8,22.2,19.4,21.7,19.4z"
	/>
<path style="fill:#c3c3c3;" d="M21.7,23.3H11.4c-0.4,0-0.8,0.4-0.8,0.8c0,0.5,0.4,0.8,0.8,0.8h10.3c0.4,0,0.8-0.4,0.8-0.8C22.5,23.6,22.2,23.3,21.7,23.3z"
	/>
</svg>
