<?xml version="1.0" encoding="utf-8"?>
<!-- Generator: Adobe Illustrator 21.0.0, SVG Export Plug-In . SVG Version: 6.00 Build 0)  -->
<svg version="1.1" id="Layer_1" xmlns="http://www.w3.org/2000/svg" xmlns:xlink="http://www.w3.org/1999/xlink" x="0px" y="0px"
	 viewBox="0 0 32 32" style="enable-background:new 0 0 32 32;" xml:space="preserve">
<path d="M16.2,0c-2.2,0-4,1.1-4,3c0,5.8,0.8,10.2,0.8,16c0,1.5,1.5,2.1,3.2,2.1c1.3,0,3.1-0.6,3.1-2.1c0-5.8,0.8-10.2,0.8-16
	C20.1,1.1,18.3,0,16.2,0z"/>
<path d="M16.2,24.5c-2.4,0-4.2,1.7-4.2,3.8c0,2,1.8,3.8,4.2,3.8c2.2,0,4.1-1.8,4.1-3.8C20.3,26.2,18.4,24.5,16.2,24.5z"/>
</svg>
