<?xml version="1.0" encoding="utf-8"?>
<!-- Generator: Adobe Illustrator 21.0.0, SVG Export Plug-In . SVG Version: 6.00 Build 0)  -->
<svg version="1.1" id="Layer_1" xmlns="http://www.w3.org/2000/svg" xmlns:xlink="http://www.w3.org/1999/xlink" x="0px" y="0px"
	 viewBox="0 0 32 32" style="enable-background:new 0 0 32 32;" xml:space="preserve">
<path style="fill:#c3c3c3;" d="M16.6,19.8c0.8,0,1.4-0.7,1.4-1.5c0-0.8-0.6-1.5-1.4-1.5L10,11.9l5.1,6.5C15.2,19.2,15.8,19.8,16.6,19.8z"/>
<path style="fill:#c3c3c3;" d="M16,0.7C7.2,0.7,0,8,0,17.1c0,3.4,1,6.5,2.7,9.1h2l0,0.1l0.1-0.1h0.1c0,0,0,0,0,0l2.8-2.5l-1.3-1.6l-2.6,2.3
	c-1.2-2.2-1.9-4.7-1.9-7.4c0-0.1,0-0.2,0-0.4l3.2,0v-2.1H2c0.4-2.5,1.5-4.9,3-6.8l2.2,2.3l1.4-1.5L6.4,6.3c2.2-2.1,5.1-3.5,8.3-3.8
	l0,3.8l2,0V2.5c3.5,0.2,6.8,1.7,9.2,4l-2.3,2.4l1.4,1.5l2.2-2.3c1.4,1.9,2.4,4.1,2.8,6.6l-3.1,0v2.1h3.3c0,0.1,0,0.2,0,0.4
	c0,2.7-0.7,5.2-1.9,7.3l-2.4-2.5l-1.4,1.5l2.7,2.8l0,0c0,0,0,0,0,0.1h2.2c1.7-2.6,2.7-5.8,2.7-9.1C32,8,24.8,0.7,16,0.7z"/>
<path style="fill:#c3c3c3;" d="M8.7,28.1h14.5L23.1,31H8.7L8.7,28.1z"/>
</svg>
