<?xml version="1.0" encoding="utf-8"?>
<!-- Generator: Adobe Illustrator 21.0.0, SVG Export Plug-In . SVG Version: 6.00 Build 0)  -->
<svg version="1.1" id="Layer_1" xmlns="http://www.w3.org/2000/svg" xmlns:xlink="http://www.w3.org/1999/xlink" x="0px" y="0px"
	 viewBox="0 0 32 32" style="enable-background:new 0 0 32 32;" xml:space="preserve">
<style type="text/css">
	.st0{fill-rule:evenodd;clip-rule:evenodd;}
</style>
<path style="fill:#c3c3c3;" class="st0" d="M6.8,0h17.7l0.7,1.4H6.1L6.8,0z"/>
<path style="fill:#c3c3c3;" class="st0" d="M15,25.9h1.4v2.7H15V25.9z"/>
<path style="fill:#c3c3c3;" class="st0" d="M6.8,28.6h17V30h-17V28.6z"/>
<path style="fill:#c3c3c3;" class="st0" d="M6.8,30.6h17V32h-17V30.6z"/>
<path style="fill:#c3c3c3;" class="st0" d="M0,17h31.3v1.4H0V17z"/>
<path style="fill:#c3c3c3;" class="st0" d="M0,17h1.4v8.9H0V17z"/>
<path style="fill:#c3c3c3;" class="st0" d="M6.1,0h1.4L1.4,17.7H0L6.1,0z"/>
<path style="fill:#c3c3c3;" class="st0" d="M25.2,0h-1.4L30,17.7h1.4L25.2,0z"/>
<path style="fill:#c3c3c3;" class="st0" d="M5.1,20.4c0.6,0,1,0.5,1,1c0,0.6-0.5,1-1,1c-0.6,0-1-0.5-1-1C4.1,20.9,4.5,20.4,5.1,20.4z"/>
<path style="fill:#c3c3c3;" class="st0" d="M8.5,20.4c0.6,0,1,0.5,1,1c0,0.6-0.5,1-1,1s-1-0.5-1-1C7.5,20.9,7.9,20.4,8.5,20.4z"/>
<path style="fill:#c3c3c3;" class="st0" d="M11.9,20.4c0.6,0,1,0.5,1,1c0,0.6-0.5,1-1,1c-0.6,0-1-0.5-1-1C10.9,20.9,11.4,20.4,11.9,20.4z"/>
<path style="fill:#c3c3c3;" class="st0" d="M30,17h1.4v8.9H30V17z"/>
<path style="fill:#c3c3c3;" class="st0" d="M0,24.5h31.3v1.4H0V24.5z"/>
</svg>
