<?xml version="1.0" encoding="utf-8"?>
<!-- Generator: Adobe Illustrator 21.0.0, SVG Export Plug-In . SVG Version: 6.00 Build 0)  -->
<svg version="1.1" id="Layer_1" xmlns="http://www.w3.org/2000/svg" xmlns:xlink="http://www.w3.org/1999/xlink" x="0px" y="0px"
	 viewBox="0 0 32 32" style="enable-background:new 0 0 32 32;" xml:space="preserve">
<path style="fill:#3CB08D;" d="M16,0c-3.3,0-6.4,1-9,2.8c-0.1,0-0.1,0.1-0.2,0.1C6.7,2.9,6.7,3,6.6,3.1C2.6,6,0,10.7,0,16c0,8.8,7.2,16,16,16
	c3.3,0,6.4-1,9-2.8c0.1,0,0.1-0.1,0.2-0.1s0.1-0.1,0.2-0.1C29.4,26,32,21.3,32,16C32,7.2,24.8,0,16,0z M9.7,3.1
	c2.6,0,5.8,1.8,8.7,4.7c-0.8-0.1-1.6-0.1-2.5-0.1C12,7.7,8.5,8.4,5.7,9.6C5.4,7,5.9,4.9,7.2,3.9c0.1-0.1,0.2-0.1,0.3-0.2
	C8.2,3.3,8.9,3.1,9.7,3.1z M21.9,11.9c2.2,3.1,3.6,6.5,4.2,9.3c-2.7,1.2-6.2,1.9-10.1,1.9c-1.2,0-2.5-0.1-3.6-0.2
	c-0.8-0.9-1.5-1.8-2.3-2.8c-2.2-3.1-3.6-6.5-4.2-9.3C8.6,9.6,12.1,8.8,16,8.8c1.2,0,2.5,0.1,3.6,0.2C20.4,9.9,21.2,10.9,21.9,11.9z
	 M21.3,9.3c5.5,1.1,9.6,3.7,9.6,6.7c0,1.8-1.5,3.5-3.8,4.7c-0.6-2.9-2.1-6.3-4.3-9.5C22.3,10.6,21.8,9.9,21.3,9.3z M24.7,28.1
	c-0.1,0.1-0.2,0.1-0.3,0.2c-0.6,0.4-1.3,0.5-2.1,0.5l0,0c-2.6,0-5.8-1.8-8.7-4.7c0.8,0.1,1.6,0.1,2.5,0.1c3.9,0,7.5-0.7,10.3-1.9
	C26.5,24.9,26,27,24.7,28.1z M10.7,22.7C5.2,21.6,1.1,19,1.1,16c0-1.8,1.5-3.5,3.8-4.7c0.6,2.9,2.1,6.3,4.3,9.5
	C9.7,21.4,10.2,22.1,10.7,22.7z M4.8,6.2c-0.3,1.1-0.3,2.4-0.1,3.9c-1.3,0.7-2.4,1.5-3.1,2.3C2.1,10.1,3.2,8,4.8,6.2z M1.5,19.6
	c2,2.2,5.7,3.8,10.3,4.4c3.1,3.3,6.6,5.5,9.5,5.9c-1.7,0.7-3.5,1-5.4,1C9,30.9,3.1,26.1,1.5,19.6z M27.2,25.8
	c0.3-1.1,0.3-2.4,0.1-3.9c1.3-0.7,2.4-1.5,3.1-2.3C29.9,21.9,28.8,24,27.2,25.8z M20.1,8c-3.1-3.3-6.6-5.5-9.5-5.9
	c1.7-0.7,3.5-1,5.4-1c7,0,12.9,4.8,14.5,11.3C28.5,10.3,24.8,8.6,20.1,8z"/>
<path style="fill:#3CB08D;" d="M11.8,16c0,2.3,1.9,4.2,4.2,4.2c2.3,0,4.2-1.9,4.2-4.2s-1.9-4.2-4.2-4.2C13.7,11.8,11.8,13.7,11.8,16z M19.1,16
	c0,1.7-1.4,3.1-3.1,3.1c-1.7,0-3.1-1.4-3.1-3.1s1.4-3.1,3.1-3.1C17.7,12.9,19.1,14.3,19.1,16z"/>
</svg>
