<?xml version="1.0" encoding="utf-8"?>
<!-- Generator: Adobe Illustrator 21.0.0, SVG Export Plug-In . SVG Version: 6.00 Build 0)  -->
<svg version="1.1" id="Layer_1" xmlns="http://www.w3.org/2000/svg" xmlns:xlink="http://www.w3.org/1999/xlink" x="0px" y="0px"
	 viewBox="0 0 32 32" style="enable-background:new 0 0 32 32;" xml:space="preserve">
<path style="fill:#B8C7CE;"  d="M15.5,0.2c-0.2,0-0.5,0.1-0.6,0.3C14.5,1.1,5,14.9,5,21.9c0,5.7,4.7,10.4,10.5,10.4c5.8,0,10.5-4.7,10.5-10.4
	c0-7-9.5-20.8-9.9-21.3C16,0.3,15.7,0.2,15.5,0.2z M15.5,31.1c-5,0-9.3-4.4-9.3-9.3c0-5.5,7.2-16.9,9.3-20.1
	c2.1,3.2,9.3,14.6,9.3,20.1C24.8,26.7,20.5,31.1,15.5,31.1z"/>
<path style="fill:#B8C7CE;" d="M14.8,28.1c0,0.4,0.3,0.7,0.7,0.7c3.9,0,7-3.1,7-7c0-0.4-0.3-0.7-0.7-0.7c-0.4,0-0.5,0.2-0.5,0.7c0,3-2.7,6.3-5.8,5.8
	C15.1,27.6,14.8,27.7,14.8,28.1z"/>
</svg>
