<?xml version="1.0" encoding="utf-8"?>
<!-- Generator: Adobe Illustrator 21.0.0, SVG Export Plug-In . SVG Version: 6.00 Build 0)  -->
<svg version="1.1" id="Layer_1" xmlns="http://www.w3.org/2000/svg" xmlns:xlink="http://www.w3.org/1999/xlink" x="0px" y="0px"
	 viewBox="0 0 32 32" style="enable-background:new 0 0 32 32;" xml:space="preserve">
<path style="fill:#c3c3c3;" d="M3.8,8.4c2.1,0,3.8-1.7,3.8-3.7c0-2-1.7-3.7-3.8-3.7C1.7,1,0,2.7,0,4.7C0,6.7,1.7,8.4,3.8,8.4z M3.8,2.7c1.1,0,2,0.9,2,2
	c0,1.1-0.9,2-2,2c-1.1,0-2-0.9-2-2C1.8,3.6,2.7,2.7,3.8,2.7z"/>
<path style="fill:#c3c3c3;" d="M3.8,19.9c2.1,0,3.8-1.7,3.8-3.7s-1.7-3.7-3.8-3.7c-2.1,0-3.8,1.7-3.8,3.7C0,18.2,1.7,19.9,3.8,19.9z M3.8,14.2
	c1.1,0,2,0.9,2,2c0,1.1-0.9,2-2,2c-1.1,0-2-0.9-2-2C1.8,15.1,2.7,14.2,3.8,14.2z"/>
<path style="fill:#c3c3c3;" d="M3.8,31.3c2.1,0,3.8-1.7,3.8-3.7c0-2-1.7-3.7-3.8-3.7c-2.1,0-3.8,1.7-3.8,3.7S1.7,31.3,3.8,31.3z M3.8,25.6c1.1,0,2,0.9,2,2
	c0,1.1-0.9,2-2,2c-1.1,0-2-0.9-2-2C1.8,26.5,2.7,25.6,3.8,25.6z"/>
<path style="fill:#c3c3c3;" d="M10.1,6.1H32V4.4H10.1V6.1z"/>
<path style="fill:#c3c3c3;" d="M10.1,16.2H32v-1.7H10.1V16.2z"/>
<path style="fill:#c3c3c3;" d="M10.1,27.9H32v-1.7H10.1V27.9z"/>
</svg>
