<?xml version="1.0" encoding="utf-8"?>
<!-- Generator: Adobe Illustrator 21.0.0, SVG Export Plug-In . SVG Version: 6.00 Build 0)  -->
<svg version="1.1" id="Layer_1" xmlns="http://www.w3.org/2000/svg" xmlns:xlink="http://www.w3.org/1999/xlink" x="0px" y="0px"
	 viewBox="0 0 32 32" style="enable-background:new 0 0 32 32;" xml:space="preserve">
<style type="text/css">
	.st0{fill-rule:evenodd;clip-rule:evenodd;}
</style>
<g>
	<path style="fill:#B8C7CE;" class="st0" d="M15.8,4.7c-5.6,0-10.1,4.5-10.1,10.1c0,4.2,2.6,7.9,6.5,9.4v5.4c0,0.3,0.3,0.6,0.6,0.6h0.6v1.2
		c0,0.3,0.3,0.6,0.6,0.6h3.6c0.3,0,0.6-0.3,0.6-0.6v-1.2h0.6c0.3,0,0.6-0.3,0.6-0.6v-5.4c3.9-1.5,6.5-5.2,6.5-9.4
		C25.9,9.3,21.4,4.7,15.8,4.7z M18.2,29h-0.6c-0.3,0-0.6,0.3-0.6,0.6v1.2h-2.4v-1.2c0-0.3-0.3-0.6-0.6-0.6h-0.6v-3h4.7V29z
		 M18.6,23.3c-0.2,0.1-0.4,0.3-0.4,0.6v1.1h-4.7v-1.1c0-0.3-0.2-0.5-0.4-0.6c-3.7-1.2-6.1-4.6-6.1-8.4c0-4.9,4-8.9,8.9-8.9
		c4.9,0,8.9,4,8.9,8.9C24.7,18.7,22.3,22.1,18.6,23.3z"/>
	<path style="fill:#B8C7CE;" class="st0" d="M15.8,3.6c0.3,0,0.6-0.3,0.6-0.6V0.6c0-0.3-0.3-0.6-0.6-0.6c-0.3,0-0.6,0.3-0.6,0.6V3
		C15.2,3.3,15.5,3.6,15.8,3.6z"/>
	<path style="fill:#B8C7CE;" class="st0" d="M30.1,14.2h-2.4c-0.3,0-0.6,0.3-0.6,0.6c0,0.3,0.3,0.6,0.6,0.6h2.4c0.3,0,0.6-0.3,0.6-0.6
		C30.7,14.5,30.4,14.2,30.1,14.2z"/>
	<path style="fill:#B8C7CE;" class="st0" d="M4,14.2H1.6c-0.3,0-0.6,0.3-0.6,0.6c0,0.3,0.3,0.6,0.6,0.6H4c0.3,0,0.6-0.3,0.6-0.6C4.6,14.5,4.3,14.2,4,14.2z
		"/>
	<path style="fill:#B8C7CE;" class="st0" d="M25.5,4.3L23.8,6c-0.2,0.2-0.2,0.6,0,0.8C23.9,7,24.1,7,24.2,7c0.2,0,0.3-0.1,0.4-0.2l1.7-1.7
		c0.2-0.2,0.2-0.6,0-0.8C26.1,4.1,25.7,4.1,25.5,4.3z"/>
	<path style="fill:#B8C7CE;" class="st0" d="M7,22.8l-1.7,1.7c-0.2,0.2-0.2,0.6,0,0.8c0.1,0.1,0.3,0.2,0.4,0.2c0.2,0,0.3-0.1,0.4-0.2l1.7-1.7
		c0.2-0.2,0.2-0.6,0-0.8C7.6,22.5,7.3,22.5,7,22.8z"/>
	<path style="fill:#B8C7CE;" class="st0" d="M24.6,22.8c-0.2-0.2-0.6-0.2-0.8,0c-0.2,0.2-0.2,0.6,0,0.8l1.7,1.7c0.1,0.1,0.3,0.2,0.4,0.2s0.3-0.1,0.4-0.2
		c0.2-0.2,0.2-0.6,0-0.8L24.6,22.8z"/>
	<path style="fill:#B8C7CE;" class="st0" d="M7,6.9C7.1,7,7.3,7,7.4,7C7.6,7,7.7,7,7.9,6.9c0.2-0.2,0.2-0.6,0-0.8L6.2,4.3C6,4.1,5.6,4.1,5.3,4.3
		c-0.2,0.2-0.2,0.6,0,0.8L7,6.9z"/>
	<path style="fill:#B8C7CE;" class="st0" d="M15.9,13.9c-0.8,0-1.5,0.7-1.5,1.5s0.7,1.5,1.5,1.5c0.8,0,1.5-0.7,1.5-1.5c0-0.1,0-0.2,0-0.3l3.4-4.6l-4.6,3.4
		C16.1,13.9,16,13.9,15.9,13.9z"/>
</g>
</svg>
