<?xml version="1.0" encoding="utf-8"?>
<!-- Generator: Adobe Illustrator 21.0.0, SVG Export Plug-In . SVG Version: 6.00 Build 0)  -->
<svg version="1.1" id="Layer_1" xmlns="http://www.w3.org/2000/svg" xmlns:xlink="http://www.w3.org/1999/xlink" x="0px" y="0px"
	 viewBox="0 0 32 32" style="enable-background:new 0 0 32 32;" xml:space="preserve">
<path style="fill:#B8C7CE;" d="M9.6,17.5v-7.4V6.9V0H1v6.9v3.2v7.4c0,7.9,6.5,14.4,14.5,14.4S30,25.5,30,17.5v-7.4V6.9V0h-8.6v6.9v3.2v7.4
	c0,3.2-2.7,5.8-5.9,5.8C12.2,23.4,9.6,20.8,9.6,17.5z M2.1,1.1h6.4v5.8H2.1V1.1z M2.1,8h6.4V9H2.1V8z M22.5,1.1h6.4v5.8h-6.4V1.1z
	 M22.5,8h6.4V9h-6.4V8z M15.5,24.5c3.8,0,7-3.1,7-6.9v-7.4h6.4v7.4c0,7.3-6,13.3-13.4,13.3s-13.4-6-13.4-13.3v-7.4h6.4v7.4
	C8.5,21.4,11.7,24.5,15.5,24.5z"/>
</svg>
