<?xml version="1.0" encoding="utf-8"?>
<!-- Generator: Adobe Illustrator 21.0.0, SVG Export Plug-In . SVG Version: 6.00 Build 0)  -->
<svg version="1.1" id="Layer_1" xmlns="http://www.w3.org/2000/svg" xmlns:xlink="http://www.w3.org/1999/xlink" x="0px" y="0px"
	 viewBox="0 0 32 32" style="enable-background:new 0 0 32 32;" xml:space="preserve">
<style type="text/css">
	.st0{fill-rule:evenodd;clip-rule:evenodd;}
</style>
<g>
	<path  style="fill:#B8C7CE;" class="st0" d="M18.1,11.6C18.1,11.6,18.1,11.6,18.1,11.6l4-5.8l-5.3,4.1c-0.2,0-0.3-0.1-0.5-0.1c-1,0-1.8,0.8-1.8,1.8
		c0,1,0.8,1.8,1.8,1.8C17.3,13.4,18.1,12.6,18.1,11.6z"/>
	<rect style="fill:#B8C7CE;"  x="1.1" y="30.8" class="st0" width="29.7" height="1.2"/>
	<path style="fill:#B8C7CE;" class="st0" d="M18,26.8v-3.6c5.6-0.8,9.9-5.7,9.9-11.5C27.9,5.2,22.7,0,16.3,0C9.8,0,4.6,5.2,4.6,11.6c0,5.6,4,10.3,9.3,11.4
		v3.7H1.1v1.2h12.8h1.2h1.7H18h12.8v-1.2H18z M5.8,11.6c0-5.8,4.7-10.5,10.5-10.5c5.8,0,10.5,4.7,10.5,10.5S22,22.1,16.3,22.1
		C10.5,22.1,5.8,17.4,5.8,11.6z M15.1,26.8v-3.5c0.4,0,0.8,0.1,1.2,0.1c0.2,0,0.4,0,0.6,0v3.5H15.1z"/>
</g>
</svg>
