<?xml version="1.0" encoding="utf-8"?>
<!-- Generator: Adobe Illustrator 21.0.0, SVG Export Plug-In . SVG Version: 6.00 Build 0)  -->
<svg version="1.1" id="Layer_1" xmlns="http://www.w3.org/2000/svg" xmlns:xlink="http://www.w3.org/1999/xlink" x="0px" y="0px"
	 viewBox="0 0 32 32" style="enable-background:new 0 0 32 32;" xml:space="preserve">
<path style="fill:#c3c3c3;" d="M16,24.7c-0.4,0-0.7,0.3-0.7,0.7v1c0,0.4,0.3,0.7,0.7,0.7c0.4,0,0.7-0.3,0.7-0.7v-1C16.7,25,16.4,24.7,16,24.7z"/>
<path style="fill:#c3c3c3;" d="M32,4.4h-1.7V1L16,5.3L1.7,1v3.4H0v26.9h16h16V4.4z M1.7,29.6V6.1h1.7v20.2l6.7,3.4H1.7z M14.4,29.4l-9.4-4.8V4.4l10.1,3.4
	v15.2h1.7V7.7l10.1-3.4v20.2l-9.4,4.8C16.5,29.7,15.5,29.7,14.4,29.4z M30.3,29.6l-8.8-0.2l7.1-3.2V6.1h1.7V29.6z"/>
</svg>
