<?xml version="1.0" encoding="utf-8"?>
<!-- Generator: Adobe Illustrator 21.0.0, SVG Export Plug-In . SVG Version: 6.00 Build 0)  -->
<svg version="1.1" id="Layer_1" xmlns="http://www.w3.org/2000/svg" xmlns:xlink="http://www.w3.org/1999/xlink" x="0px" y="0px"
	 viewBox="0 0 32 32" style="enable-background:new 0 0 32 32;" xml:space="preserve">
<path d="M0.1,15.4c0.4,3.1,2,5.9,4.5,7.9c3.4,2.6,7.9,3.2,11.9,1.6c1.5-0.6,2.8-1.5,4-2.6l9.8,7.6l1.8-2.2L22.2,20
	c1.4-2.3,2-4.9,1.6-7.5c-0.4-3.1-2-5.9-4.5-7.9C16,2,11.4,1.4,7.5,2.9C5.5,3.7,3.8,5,2.5,6.6C0.6,9.1-0.3,12.2,0.1,15.4z M8.5,5.6
	c3-1.2,6.5-0.7,9,1.2c1.9,1.5,3.1,3.6,3.4,6c0.3,2.4-0.4,4.7-1.9,6.6c-1,1.2-2.3,2.2-3.7,2.8c-3,1.2-6.5,0.7-9-1.2
	c-1.9-1.5-3.1-3.6-3.4-6c-0.3-2.4,0.4-4.7,1.9-6.6C5.8,7.1,7.1,6.2,8.5,5.6z"/>
</svg>
