<?xml version="1.0" encoding="utf-8"?>
<!-- Generator: Adobe Illustrator 21.0.0, SVG Export Plug-In . SVG Version: 6.00 Build 0)  -->
<svg version="1.1" id="Layer_1" xmlns="http://www.w3.org/2000/svg" xmlns:xlink="http://www.w3.org/1999/xlink" x="0px" y="0px"
	 viewBox="0 0 32 32" style="enable-background:new 0 0 32 32;" xml:space="preserve">
<path style="fill:#c3c3c3;" d="M16.7,25.6c0,0.3-0.3,0.6-0.6,0.6h-1.7v2.3c0,0.2-0.3,0.5-0.6,0.6H9.2v2.3c0,0.3-0.3,0.6-0.6,0.6C8.3,32,8,31.7,8,31.4V1.2
	c0-0.3,0.3-0.6,0.6-0.6c0.3,0,0.6,0.3,0.6,0.6v2.3h4.6c0.3,0.1,0.6,0.4,0.6,0.6v2.3h1.7c0.3,0,0.6,0.3,0.6,0.6 M15.5,25V7.6h-1.2V25
	H15.5z M9.2,27.9h4.1V4.7H9.2V27.9z"/>
<path style="fill:#c3c3c3;" d="M19.4,7.3c0,0.3-0.2,0.5-0.5,0.5c-0.3,0-0.5-0.2-0.5-0.5c0-1-0.7-1.7-1.6-1.7c-0.3,0-0.5-0.2-0.5-0.5c0-0.3,0.2-0.5,0.5-0.5
	C18.2,4.6,19.4,5.8,19.4,7.3z"/>
<path style="fill:#c3c3c3;" d="M23.7,7.3c0,0.3-0.2,0.5-0.5,0.5c-0.3,0-0.5-0.2-0.5-0.5c0-3.4-2.7-6.2-5.9-6.2c-0.3,0-0.5-0.2-0.5-0.5s0.2-0.5,0.5-0.5
	C20.6,0.1,23.7,3.3,23.7,7.3z"/>
<path style="fill:#c3c3c3;" d="M21.5,7.3c0,0.3-0.2,0.5-0.5,0.5c-0.3,0-0.5-0.2-0.5-0.5c0-2.2-1.7-4-3.8-4c-0.3,0-0.5-0.2-0.5-0.5s0.2-0.5,0.5-0.5
	C19.4,2.3,21.5,4.6,21.5,7.3z"/>
</svg>
