<?xml version="1.0" encoding="utf-8"?>
<!-- Generator: Adobe Illustrator 21.0.0, SVG Export Plug-In . SVG Version: 6.00 Build 0)  -->
<svg version="1.1" id="Layer_1" xmlns="http://www.w3.org/2000/svg" xmlns:xlink="http://www.w3.org/1999/xlink" x="0px" y="0px"
	 viewBox="0 0 32 32" style="enable-background:new 0 0 32 32;" xml:space="preserve">
<path style="fill:#c3c3c3;" d="M25.5,21.1c-0.8,0-1.5,0.3-2.1,0.8c-0.6,0.5-0.9,1.2-0.9,2c0,0.7,0.3,1.4,0.9,2c0.6,0.5,1.3,0.8,2.1,0.8
	c1.6,0,2.9-1.2,2.9-2.8C28.4,22.3,27.1,21.1,25.5,21.1z M25.5,25.4c-0.9,0-1.6-0.7-1.6-1.5s0.7-1.5,1.6-1.5c0.9,0,1.6,0.7,1.6,1.5
	C27.1,24.7,26.4,25.4,25.5,25.4z"/>
<path style="fill:#c3c3c3;" d="M24.9,11.7H22v6.4h7.1v-2.8L24.9,11.7z M27.7,16.7h-4.3v-3.6h1.4l2.8,2.1V16.7z"/>
<path style="fill:#c3c3c3;" d="M9.9,21.1c-0.8,0-1.5,0.3-2.1,0.8c-0.6,0.5-0.9,1.2-0.9,2c0,0.7,0.3,1.4,0.9,2c0.6,0.5,1.3,0.8,2.1,0.8
	c1.6,0,2.9-1.2,2.9-2.8C12.7,22.3,11.4,21.1,9.9,21.1z M9.9,25.4c-0.9,0-1.6-0.7-1.6-1.5s0.7-1.5,1.6-1.5c0.9,0,1.6,0.7,1.6,1.5
	C11.4,24.7,10.7,25.4,9.9,25.4z"/>
<path style="fill:#c3c3c3;" d="M5.7,21.6H3.6v-1.4H2.1v2.8h3.6V21.6z"/>
<path style="fill:#c3c3c3;" d="M7.8,18.1H0v1.4h7.8V18.1z"/>
<path style="fill:#c3c3c3;" d="M1.4,16.7h7.8v-1.4H1.4V16.7z"/>
<path style="fill:#c3c3c3;" d="M2.8,13.8H10v-1.4H2.8V13.8z"/>
<path style="fill:#c3c3c3;" d="M26,8.8l-5.4,0V6H2.1v5h1.4V7.4h15.6v14.2h-5v1.4H22v-1.4h-1.4V10.3h5l5,3.6v7.8h-1.4l0.2,1.2l2.6,0.2v-10L26,8.8z"/>
</svg>
